<?xml version="1.0" encoding="UTF-8" standalone="no"?>
<!-- Created with Inkscape (http://www.inkscape.org/) -->

<svg
   xmlns:dc="http://purl.org/dc/elements/1.1/"
   xmlns:cc="http://creativecommons.org/ns#"
   xmlns:rdf="http://www.w3.org/1999/02/22-rdf-syntax-ns#"
   xmlns:svg="http://www.w3.org/2000/svg"
   xmlns="http://www.w3.org/2000/svg"
   xmlns:sodipodi="http://sodipodi.sourceforge.net/DTD/sodipodi-0.dtd"
   xmlns:inkscape="http://www.inkscape.org/namespaces/inkscape"
   width="4.2333331mm"
   height="4.2333298mm"
   viewBox="0 0 4.2333332 4.2333297"
   version="1.1"
   id="svg8"
   inkscape:version="0.92.4 (5da689c313, 2019-01-14)"
   sodipodi:docname="razvy.svg">
  <defs
     id="defs2" />
  <sodipodi:namedview
     id="base"
     pagecolor="#ffffff"
     bordercolor="#666666"
     borderopacity="1.0"
     inkscape:pageopacity="0.0"
     inkscape:pageshadow="2"
     inkscape:zoom="31.678384"
     inkscape:cx="16.503967"
     inkscape:cy="7.1879411"
     inkscape:document-units="mm"
     inkscape:current-layer="layer1"
     showgrid="false"
     inkscape:window-width="1920"
     inkscape:window-height="1001"
     inkscape:window-x="-9"
     inkscape:window-y="-9"
     inkscape:window-maximized="1" />
  <metadata
     id="metadata5">
    <rdf:RDF>
      <cc:Work
         rdf:about="">
        <dc:format>image/svg+xml</dc:format>
        <dc:type
           rdf:resource="http://purl.org/dc/dcmitype/StillImage" />
        <dc:title></dc:title>
      </cc:Work>
    </rdf:RDF>
  </metadata>
  <g
     inkscape:label="Layer 1"
     inkscape:groupmode="layer"
     id="layer1"
     transform="translate(-49.703856,-208.85592)">
    <path
       style="fill:#000000;stroke-width:0.04233333"
       d="m 49.703856,210.9726 v -2.11666 l 1.04775,0.003 c 0.90865,0.002 1.025088,0.01 0.877056,0.0563 -0.09388,0.0294 -0.255806,0.10297 -0.359834,0.16347 -0.253624,0.14749 -0.769151,0.34775 -1.063844,0.41325 l -0.239706,0.0533 0.02014,0.32218 c 0.0499,0.79821 0.274944,1.51182 0.656806,2.08271 0.259227,0.38755 0.690285,0.81864 1.000746,1.00082 l 0.18228,0.10696 0.224595,-0.15468 c 0.3138,-0.21612 0.736732,-0.66601 0.988112,-1.05108 0.344641,-0.52794 0.572726,-1.27136 0.615577,-2.00642 l 0.01758,-0.30153 -0.237379,-0.0528 c -0.292629,-0.065 -0.808629,-0.26567 -1.061518,-0.41273 -0.104027,-0.0605 -0.265952,-0.13406 -0.359834,-0.16347 -0.148032,-0.0464 -0.03159,-0.0539 0.877056,-0.0563 l 1.04775,-0.003 v 2.11666 2.11667 h -2.116666 -2.116667 z m 1.792092,1.72154 c -0.458,-0.33716 -0.864052,-0.88237 -1.094671,-1.46982 -0.144069,-0.36698 -0.280858,-1.05691 -0.26545,-1.33886 l 0.01253,-0.22925 0.359834,-0.12097 c 0.197908,-0.0665 0.539425,-0.20849 0.758927,-0.31547 0.251463,-0.12255 0.456178,-0.1945 0.553407,-0.1945 0.09723,0 0.301944,0.0719 0.553404,0.1945 0.219503,0.10698 0.561019,0.24893 0.758928,0.31543 l 0.359834,0.12093 0.0129,0.19226 c 0.03234,0.4823 -0.205728,1.32768 -0.530669,1.88442 -0.263077,0.45075 -0.971153,1.14479 -1.167942,1.14479 -0.03399,0 -0.173947,-0.0826 -0.311019,-0.18346 z m 0.789122,-1.12376 c 0.427131,-0.25527 0.567852,-0.80888 0.31115,-1.22408 -0.367312,-0.59411 -1.184083,-0.59411 -1.551395,0 -0.246228,0.39826 -0.123005,0.94427 0.272119,1.20575 0.306569,0.20288 0.648487,0.20935 0.968126,0.0183 z m -0.813797,-0.0717 c -0.06403,-0.0347 -0.116417,-0.0771 -0.116417,-0.0942 0,-0.0399 1.028513,-1.06693 1.068441,-1.06693 0.06908,0 0.159225,0.26519 0.159225,0.46839 0,0.44449 -0.319788,0.76088 -0.765719,0.75758 -0.126013,-9.6e-4 -0.281501,-0.0301 -0.34553,-0.0649 z M 51.12311,211.144 c -0.03552,-0.0687 -0.06427,-0.22586 -0.06389,-0.34925 0.0014,-0.44576 0.307064,-0.75144 0.752822,-0.75282 0.209312,-6.4e-4 0.474149,0.0886 0.474149,0.15977 0,0.0401 -1.028346,1.0672 -1.068442,1.0672 -0.01653,0 -0.05911,-0.0562 -0.09464,-0.1249 z"
       id="path869"
       inkscape:connector-curvature="0" />
  </g>
</svg>
